<svg xmlns="http://www.w3.org/2000/svg" xmlns:xlink="http://www.w3.org/1999/xlink" width="420" zoomAndPan="magnify" viewBox="0 0 315 179.999997" height="240" preserveAspectRatio="xMidYMid meet" version="1.0"><defs><g/><clipPath id="15d575307e"><path d="M 74 1 L 243 1 L 243 106.6875 L 74 106.6875 Z M 74 1 " clip-rule="nonzero"/></clipPath><clipPath id="c94c86a6f2"><path d="M 92.585938 22.160156 L 223.835938 22.160156 L 223.835938 85.910156 L 92.585938 85.910156 Z M 92.585938 22.160156 " clip-rule="nonzero"/></clipPath></defs><g clip-path="url(#15d575307e)"><path fill="#404c48" d="M 242.007812 48.429688 C 242.007812 42.585938 241.976562 36.914062 242.015625 31.253906 C 242.078125 23.3125 242.191406 15.371094 242.285156 7.433594 C 242.300781 6.199219 242.269531 4.96875 241.953125 3.757812 C 241.660156 2.648438 240.898438 2 239.613281 1.941406 C 237.488281 1.832031 235.363281 1.863281 233.246094 1.617188 C 232.578125 1.539062 231.890625 1.671875 231.769531 2.371094 C 231.492188 3.941406 230.484375 5.589844 232.476562 6.9375 C 233.078125 7.339844 233.15625 8 232.847656 8.632812 C 232.507812 9.328125 231.914062 9.664062 231.023438 9.679688 C 229.789062 9.703125 228.765625 9.234375 228.433594 8.402344 C 228.082031 7.523438 228.421875 6.839844 229.304688 6.347656 C 229.789062 6.070312 230.40625 5.691406 230.28125 5.230469 C 230.019531 4.226562 230.597656 3.28125 230.335938 2.316406 C 230.269531 2.0625 229.960938 1.980469 229.691406 1.894531 C 229.097656 1.703125 228.519531 1.453125 227.851562 1.492188 C 226.496094 1.570312 225.164062 1.378906 223.824219 1.253906 C 222.414062 1.125 221 1.0625 219.574219 1.148438 C 218.78125 1.191406 218.304688 1.410156 218.105469 2.171875 C 217.558594 4.195312 217.179688 6.160156 219.136719 7.832031 C 219.503906 8.148438 219.75 8.519531 219.328125 8.964844 C 218.511719 9.820312 216.410156 10.152344 215.417969 9.527344 C 214.933594 9.21875 214.5 8.734375 215.15625 8.324219 C 216.410156 7.539062 216.449219 6.59375 216.078125 5.429688 C 215.917969 4.921875 216.078125 4.328125 216.09375 3.773438 C 216.132812 1.988281 214.941406 1.03125 212.890625 1.308594 C 211.835938 1.453125 210.789062 1.578125 209.71875 1.578125 C 207.625 1.589844 206.617188 2.519531 206.695312 4.375 C 206.753906 5.800781 206.902344 7.175781 208.410156 8.140625 C 209.089844 8.570312 208.902344 9.09375 208.242188 9.480469 C 207.648438 9.828125 207.015625 10.097656 206.292969 10.164062 C 205.292969 10.265625 204.277344 9.71875 203.738281 8.832031 C 203.246094 8.015625 203.777344 7.59375 204.5 7.191406 C 205.261719 6.761719 205.285156 6.046875 205.253906 5.375 C 205.199219 4.398438 205.039062 3.417969 204.945312 2.433594 C 204.894531 1.847656 204.570312 1.609375 203.875 1.53125 C 201.605469 1.277344 199.347656 1.507812 197.078125 1.53125 C 196.59375 1.53125 196.199219 1.769531 196.230469 2.1875 C 196.402344 4.265625 195.222656 6.460938 196.96875 8.425781 C 197.363281 8.863281 197.410156 9.488281 196.730469 9.894531 C 196.070312 10.289062 193.4375 10.128906 192.851562 9.65625 C 192.175781 9.109375 192.050781 8.488281 192.75 7.910156 C 193.566406 7.230469 193.628906 6.429688 193.5 5.535156 C 193.40625 4.867188 193.40625 4.1875 193.382812 3.511719 C 193.335938 1.871094 192.773438 1.230469 190.917969 1.191406 C 188.578125 1.140625 186.238281 1.238281 183.914062 1.554688 C 183.46875 1.617188 182.945312 1.792969 183.097656 2.210938 C 183.804688 4.167969 182.511719 6.523438 184.730469 8.195312 C 185.074219 8.457031 185.421875 9.003906 184.921875 9.519531 C 183.789062 10.699219 180.871094 10.605469 179.773438 9.347656 C 179.09375 8.570312 179.179688 8.101562 180.234375 7.625 C 180.695312 7.417969 181.171875 7.339844 181.148438 6.785156 C 181.097656 5.550781 181.082031 4.328125 180.949219 3.101562 C 180.847656 2.117188 179.871094 1.214844 178.753906 1.175781 C 176.777344 1.117188 174.796875 0.929688 172.8125 1.175781 C 172.296875 1.238281 171.828125 1.332031 171.519531 1.710938 C 170.980469 2.386719 171.042969 7.640625 171.585938 8.363281 C 171.625 8.417969 171.6875 8.457031 171.726562 8.503906 C 172.558594 9.582031 172.328125 10.058594 170.816406 10.351562 C 169.53125 10.597656 168.199219 9.949219 167.761719 8.871094 C 167.609375 8.488281 167.59375 8.070312 168.117188 7.972656 C 169.285156 7.738281 169.230469 7.0625 169.148438 6.269531 C 169.054688 5.414062 169.09375 4.542969 169.039062 3.6875 C 168.9375 2.085938 168.460938 1.679688 166.566406 1.578125 C 165.4375 1.523438 164.296875 1.515625 163.164062 1.507812 C 161.511719 1.5 160.648438 2.179688 160.570312 3.550781 C 160.554688 3.796875 160.523438 4.042969 160.523438 4.289062 C 160.523438 5.851562 159.992188 7.492188 161.578125 8.800781 C 162.011719 9.15625 161.601562 9.496094 161.21875 9.664062 C 159.386719 10.457031 157.523438 10.457031 155.691406 9.664062 C 155.167969 9.441406 154.933594 9.050781 155.445312 8.648438 C 156.589844 7.738281 156.519531 6.59375 156.429688 5.40625 C 156.359375 4.429688 156.304688 3.441406 156.382812 2.472656 C 156.4375 1.792969 156.105469 1.539062 155.449219 1.539062 C 153.535156 1.539062 151.617188 1.507812 149.707031 1.632812 C 148.445312 1.710938 147.96875 2.234375 147.882812 3.3125 C 147.789062 4.472656 147.777344 5.644531 147.699219 6.816406 C 147.667969 7.300781 147.867188 7.585938 148.351562 7.863281 C 149.398438 8.457031 149.429688 8.734375 148.730469 9.496094 C 147.859375 10.449219 146.582031 10.675781 145.304688 10.128906 C 144.558594 9.804688 144.433594 9.386719 144.910156 8.808594 C 145.3125 8.324219 145.898438 7.964844 145.84375 7.230469 C 145.726562 5.761719 145.765625 4.273438 145.652344 2.804688 C 145.550781 1.484375 145.375 1.386719 143.894531 1.175781 C 142.125 0.921875 140.363281 1.140625 138.589844 1.164062 C 136.941406 1.183594 136.035156 2.015625 135.917969 3.472656 C 135.84375 4.449219 135.902344 5.445312 135.796875 6.421875 C 135.726562 7.078125 135.933594 7.363281 136.667969 7.648438 C 137.773438 8.070312 137.828125 8.71875 137.011719 9.511719 C 136.128906 10.367188 134.601562 10.589844 133.078125 10.082031 C 131.632812 9.597656 131.253906 8.964844 132.316406 8.070312 C 133.441406 7.132812 133.371094 6.046875 133.570312 4.945312 C 133.726562 4.105469 133.425781 3.25 133.785156 2.394531 C 133.996094 1.910156 133.53125 1.640625 132.957031 1.5625 C 130.628906 1.246094 128.289062 1.148438 125.949219 1.199219 C 124.125 1.246094 123.546875 1.917969 123.492188 3.542969 C 123.46875 4.28125 123.441406 5.019531 123.363281 5.753906 C 123.285156 6.515625 123.449219 7.167969 124 7.816406 C 124.988281 8.972656 124.480469 9.890625 122.847656 10.082031 C 122.429688 10.128906 122 10.113281 121.570312 10.113281 C 119.667969 10.082031 119.167969 9.449219 120.144531 8.09375 C 120.714844 7.300781 120.914062 6.546875 120.835938 5.660156 C 120.746094 4.621094 120.597656 3.582031 120.652344 2.546875 C 120.691406 1.769531 120.3125 1.5625 119.558594 1.546875 C 117.996094 1.507812 116.441406 1.402344 114.878906 1.441406 C 112.105469 1.5 112.105469 1.539062 111.816406 3.988281 C 111.777344 4.296875 111.675781 4.597656 111.652344 4.898438 C 111.574219 5.898438 111.53125 6.871094 112.753906 7.476562 C 113.546875 7.871094 113.453125 8.464844 113 9.058594 C 112.046875 10.335938 110.582031 10.574219 108.949219 9.703125 C 107.878906 9.132812 107.75 8.703125 108.65625 8.023438 C 109.726562 7.230469 110.058594 6.230469 110.136719 5.097656 C 110.191406 4.304688 110.136719 3.503906 110.242188 2.71875 C 110.367188 1.839844 109.835938 1.625 109.011719 1.617188 C 107.164062 1.617188 105.339844 1.53125 103.5 1.300781 C 101.859375 1.101562 100.75 2.171875 100.765625 3.664062 C 100.773438 4.464844 101.027344 5.296875 100.691406 6.046875 C 100.296875 6.898438 100.660156 7.425781 101.289062 8.007812 C 102.3125 8.957031 102.074219 9.527344 100.628906 9.828125 C 99.8125 9.996094 99.097656 9.828125 98.386719 9.488281 C 97.132812 8.894531 96.972656 8.617188 97.933594 7.703125 C 99.410156 6.300781 99.359375 4.683594 99.027344 3.042969 C 98.710938 1.175781 98.535156 1.046875 96.449219 1.101562 C 93.832031 1.164062 91.210938 1.339844 88.59375 1.507812 C 88.046875 1.546875 87.523438 1.800781 86.992188 1.964844 C 86.699219 2.054688 86.453125 2.300781 86.53125 2.519531 C 87.007812 3.882812 85.914062 5.597656 87.980469 6.636719 C 88.972656 7.140625 88.839844 8.347656 88.023438 9.050781 C 87.148438 9.8125 85.292969 9.894531 84.515625 9.210938 C 83.722656 8.519531 83.667969 7.484375 84.667969 6.785156 C 85.53125 6.175781 85.683594 5.515625 85.59375 4.691406 C 85.523438 4.082031 85.414062 3.472656 85.339844 2.863281 C 85.214844 1.855469 84.5625 1.5 83.445312 1.609375 C 82.175781 1.722656 80.894531 1.878906 79.632812 1.855469 C 75.777344 1.785156 74.777344 2.09375 74.699219 6.175781 C 74.621094 10.234375 74.730469 14.300781 74.769531 18.367188 C 74.867188 30.367188 75.144531 42.375 74.699219 54.375 C 74.335938 63.972656 73.9375 73.570312 74.058594 83.183594 C 74.113281 87.796875 74.058594 92.417969 75.238281 96.960938 C 75.285156 97.136719 75.335938 97.347656 75.277344 97.507812 C 74.445312 99.585938 75.175781 101.652344 75.328125 103.714844 C 75.421875 104.910156 75.785156 105.21875 77.085938 105.347656 C 77.648438 105.402344 78.226562 105.394531 78.785156 105.355469 C 83.390625 105.015625 87.988281 105.195312 92.605469 105.355469 C 100.828125 105.632812 109.058594 105.6875 117.289062 105.734375 C 121.753906 105.757812 126.210938 105.347656 130.675781 105.195312 C 136.351562 105.003906 142.023438 105.457031 147.660156 106.003906 C 154.742188 106.6875 161.800781 106.695312 168.894531 106.058594 C 175.523438 105.457031 182.152344 104.917969 188.839844 105.347656 C 196.199219 105.820312 203.574219 105.886719 210.96875 105.609375 C 215.570312 105.433594 220.199219 105.59375 224.792969 105.347656 C 229.128906 105.125 233.441406 105.039062 237.757812 105.339844 C 238.597656 105.394531 239.46875 105.378906 240.300781 105.273438 C 241.023438 105.179688 241.601562 104.855469 241.609375 104.0625 C 241.625 101.929688 242.492188 99.8125 241.675781 97.667969 C 241.539062 97.308594 241.738281 96.945312 241.824219 96.582031 C 242.441406 94.042969 242.664062 91.46875 242.761719 88.882812 C 242.972656 83.34375 242.902344 77.796875 242.761719 72.261719 C 242.570312 64.257812 242.253906 56.261719 242 48.445312 Z M 241.101562 89.675781 C 241.015625 91.886719 240.792969 94.097656 240.269531 96.269531 C 240.136719 96.808594 240.039062 97.382812 240.136719 97.917969 C 240.46875 99.59375 239.945312 101.226562 239.90625 102.875 C 239.890625 103.699219 239.4375 103.886719 238.535156 103.800781 C 234.570312 103.4375 230.597656 103.492188 226.625 103.648438 C 217.625 104 208.625 104.125 199.617188 104.171875 C 195.59375 104.1875 191.550781 103.910156 187.515625 103.667969 C 182.914062 103.398438 178.300781 103.730469 173.703125 104.085938 C 167.285156 104.578125 160.863281 105.25 154.394531 104.933594 C 151 104.761719 147.605469 104.523438 144.226562 104.195312 C 137.9375 103.578125 131.640625 103.4375 125.332031 103.910156 C 117.25 104.507812 109.171875 103.976562 101.089844 103.953125 C 94.707031 103.929688 88.339844 103.382812 81.949219 103.609375 C 80.671875 103.652344 79.402344 103.722656 78.132812 103.824219 C 77.402344 103.886719 77.046875 103.625 77.039062 103.015625 C 77.023438 101.359375 76.4375 99.734375 76.800781 98.054688 C 77.085938 96.746094 76.398438 95.511719 76.246094 94.226562 C 75.644531 89.320312 75.667969 84.398438 75.699219 79.476562 C 75.761719 69.378906 76.277344 59.289062 76.53125 49.199219 C 76.730469 41.144531 76.507812 33.070312 76.453125 25.007812 C 76.414062 18.976562 76.339844 12.9375 76.292969 6.90625 C 76.292969 6.230469 76.292969 5.550781 76.382812 4.882812 C 76.601562 3.386719 76.722656 3.296875 78.539062 3.257812 C 80.164062 3.226562 81.789062 3.257812 83.445312 3.257812 C 83.804688 4.335938 83.722656 5.328125 82.699219 6.347656 C 81.667969 7.378906 81.914062 9.011719 82.90625 10.121094 C 83.835938 11.167969 85.871094 11.550781 87.59375 11.003906 C 90.113281 10.210938 91.183594 7.59375 89.472656 5.921875 C 88.585938 5.050781 88.554688 4.21875 88.609375 3.027344 C 91.175781 3.226562 93.53125 2.679688 95.941406 2.648438 C 96.972656 2.632812 97.488281 2.789062 97.378906 3.84375 C 97.265625 4.988281 97.363281 6.046875 96.195312 7 C 94.914062 8.039062 95.214844 9.21875 96.609375 10.144531 C 98.320312 11.265625 100.167969 11.667969 102.167969 10.78125 C 103.746094 10.089844 104.347656 8.539062 103.308594 7.378906 C 102.082031 6.015625 102.976562 4.542969 102.722656 3.140625 C 102.660156 2.796875 103.136719 2.695312 103.507812 2.734375 C 104.277344 2.808594 105.0625 2.847656 105.816406 3.011719 C 106.703125 3.195312 108.1875 2.480469 108.386719 3.511719 C 108.589844 4.582031 108.671875 5.875 107.347656 6.847656 C 105.449219 8.25 105.703125 9.726562 107.828125 10.867188 C 110.335938 12.207031 112.292969 11.984375 114.039062 10.164062 C 115.347656 8.796875 115.371094 7.785156 114.070312 6.382812 C 113.816406 6.105469 113.421875 5.945312 113.507812 5.476562 C 113.648438 4.75 113.664062 4.003906 113.816406 3.28125 C 113.863281 3.058594 114.261719 3.019531 114.546875 3.019531 C 114.972656 3.019531 115.472656 2.894531 115.808594 3.042969 C 116.820312 3.472656 118.757812 2.03125 118.890625 4.082031 C 118.957031 5.128906 119.25 6.175781 118.488281 7.285156 C 116.878906 9.632812 118.179688 11.46875 121.300781 11.5 C 122.214844 11.507812 123.140625 11.527344 124.03125 11.246094 C 126.011719 10.597656 126.917969 8.726562 125.757812 7.253906 C 124.695312 5.898438 125.472656 4.519531 125.332031 3.164062 C 125.296875 2.796875 125.71875 2.6875 126.089844 2.6875 C 127.789062 2.710938 129.492188 2.710938 131.183594 2.957031 C 131.691406 3.035156 131.9375 3.265625 131.894531 3.703125 C 131.761719 4.945312 132.046875 6.160156 130.890625 7.308594 C 129.421875 8.773438 130.03125 10.34375 132.046875 11.207031 C 134.59375 12.300781 137.289062 11.851562 138.738281 10.082031 C 139.851562 8.726562 139.738281 7.640625 138.367188 6.476562 C 137.652344 5.867188 137.210938 3.726562 137.636719 2.933594 C 137.773438 2.679688 138.011719 2.601562 138.3125 2.59375 C 139.800781 2.578125 141.292969 2.539062 142.777344 2.53125 C 143.542969 2.53125 143.925781 2.824219 143.894531 3.550781 C 143.855469 4.597656 143.878906 5.644531 143.957031 6.683594 C 144.003906 7.308594 143.5625 7.703125 143.257812 8.179688 C 142.5 9.371094 142.753906 10.25 144.011719 11.042969 C 146.691406 12.730469 150.585938 11.351562 151.132812 8.527344 C 151.253906 7.894531 151.222656 7.292969 150.5625 6.855469 C 150.140625 6.578125 149.460938 6.46875 149.523438 5.820312 C 149.601562 4.96875 149.601562 4.097656 149.792969 3.265625 C 149.90625 2.78125 154.058594 2.632812 154.375 3.085938 C 154.503906 3.28125 154.496094 3.558594 154.511719 3.796875 C 154.558594 4.535156 154.558594 5.273438 154.621094 6.007812 C 154.679688 6.714844 154.457031 7.238281 153.878906 7.800781 C 152.765625 8.886719 153.078125 10.105469 154.496094 10.921875 C 156.667969 12.160156 160.253906 12.152344 162.394531 10.90625 C 163.78125 10.089844 164.105469 8.847656 162.980469 7.761719 C 161.503906 6.316406 162.574219 4.71875 162.417969 3.210938 C 162.394531 2.964844 162.757812 2.847656 163.050781 2.832031 C 163.472656 2.816406 163.90625 2.824219 164.328125 2.832031 C 167.351562 2.902344 167.339844 2.902344 167.339844 5.484375 C 167.339844 6.023438 167.238281 6.421875 166.628906 6.683594 C 165.492188 7.175781 165.535156 8.023438 165.84375 8.910156 C 166.769531 11.574219 170.355469 12.644531 172.882812 11.027344 C 174.058594 10.273438 174.460938 9.328125 173.667969 8.324219 C 172.34375 6.660156 173.160156 4.875 173.003906 3.140625 C 172.957031 2.65625 173.480469 2.546875 173.898438 2.546875 C 175.460938 2.546875 177.015625 2.570312 178.578125 2.585938 C 178.992188 2.585938 179.253906 2.75 179.246094 3.125 C 179.210938 4.40625 179.886719 5.753906 178.199219 6.777344 C 177.144531 7.417969 177.160156 8.53125 177.808594 9.625 C 179.324219 12.167969 184.183594 12.5625 186.230469 10.3125 C 186.976562 9.488281 186.878906 8.203125 185.839844 7.085938 C 185.429688 6.636719 185.105469 6.277344 185.066406 5.660156 C 184.851562 2.601562 184.484375 2.878906 188.046875 2.742188 C 192.535156 2.5625 191.3125 2.054688 191.679688 5.722656 C 191.734375 6.261719 191.605469 6.683594 191.1875 7.0625 C 189.5625 8.554688 191.25 11.066406 193.261719 11.304688 C 194.167969 11.414062 195.101562 11.5 196.007812 11.453125 C 198.542969 11.3125 199.828125 9.65625 198.625 7.730469 C 197.839844 6.476562 197.996094 5.273438 197.910156 4.019531 C 197.855469 3.164062 198.285156 2.949219 199.15625 3.011719 C 199.648438 3.050781 200.148438 3.011719 200.644531 2.996094 C 203.191406 2.949219 203.492188 3.234375 203.382812 5.46875 C 203.367188 5.820312 203.183594 6.023438 202.921875 6.238281 C 201.890625 7.078125 201.453125 8.078125 202.152344 9.21875 C 202.945312 10.511719 204.0625 11.605469 205.863281 11.683594 C 207.226562 11.738281 208.503906 11.246094 209.582031 10.496094 C 211.089844 9.449219 211.144531 8.261719 209.828125 7.015625 C 209.382812 6.59375 208.734375 6.398438 208.601562 5.628906 C 208.15625 3.074219 208.078125 3.011719 211.066406 2.996094 C 212.074219 2.996094 213.339844 2.132812 214.015625 3.011719 C 214.476562 3.605469 214.132812 4.675781 214.167969 5.53125 C 214.199219 6.207031 214.117188 6.753906 213.554688 7.363281 C 212.613281 8.378906 213.078125 9.820312 214.347656 10.574219 C 216.300781 11.746094 219.699219 11.167969 221.035156 9.449219 C 221.644531 8.671875 221.621094 7.722656 220.914062 7.238281 C 219.152344 6.015625 219.605469 4.40625 219.511719 2.773438 C 222.421875 2.234375 225.242188 3.355469 228.195312 2.917969 C 228.328125 4.128906 228.398438 5.019531 227.371094 5.890625 C 226.324219 6.785156 226.363281 8.023438 226.980469 9.171875 C 227.710938 10.542969 229.027344 11.121094 230.738281 11.167969 C 232.269531 11.207031 233.53125 10.875 234.285156 9.597656 C 235.039062 8.316406 234.925781 7.117188 233.949219 5.960938 C 233.703125 5.667969 233.324219 5.484375 233.214844 5.082031 C 232.816406 3.613281 233.410156 3.011719 235.171875 3.101562 C 236.449219 3.171875 237.726562 3.210938 239 3.210938 C 239.777344 3.210938 240.144531 3.503906 240.324219 4.144531 C 240.53125 4.875 240.554688 5.605469 240.554688 6.347656 C 240.492188 13.671875 240.445312 20.996094 240.34375 28.328125 C 240.191406 40.089844 240.328125 51.835938 240.839844 63.585938 C 241.214844 72.261719 241.363281 80.941406 241.03125 89.621094 Z M 241.101562 89.675781 " fill-opacity="1" fill-rule="nonzero"/></g><g fill="#404c48" fill-opacity="1"><g transform="translate(29.66552, 154.692071)"><g><path d="M 12.921875 0.761719 C 19.085938 0.761719 24.097656 -2.28125 24.097656 -7.910156 C 24.097656 -12.019531 21.386719 -14.855469 14.6875 -15.941406 L 11.03125 -16.539062 C 7.027344 -17.296875 5.9375 -18.984375 5.9375 -21.242188 C 5.9375 -23.585938 7.847656 -25.414062 11.914062 -25.414062 C 16.085938 -25.414062 20.875 -23.605469 19.125 -17.132812 L 23.339844 -18.265625 C 24.367188 -26.789062 18.984375 -30.199219 12.058594 -30.199219 C 6.0625 -30.199219 1.644531 -27.53125 1.644531 -22.207031 C 1.644531 -18.40625 4.171875 -15.574219 9.757812 -14.6875 L 13.601562 -14.074219 C 18.222656 -13.191406 19.765625 -11.546875 19.765625 -8.792969 C 19.765625 -6.367188 17.976562 -4.066406 13.003906 -4.066406 C 6.617188 -4.066406 3.984375 -8.15625 5.421875 -12.675781 L 1.316406 -11.609375 C 0.0429688 -4.621094 4.109375 0.761719 12.921875 0.761719 Z M 12.921875 0.761719 "/></g></g><g transform="translate(54.852985, 154.692071)"><g><path d="M 1.808594 -20.976562 L 1.808594 -9.121094 C 1.808594 -3.328125 3.863281 0.65625 9.53125 0.65625 C 13.746094 0.65625 16.886719 -1.601562 18.304688 -8.257812 L 18.46875 -8.257812 L 17.648438 0 L 22.003906 0 L 22.003906 -20.976562 L 17.914062 -20.976562 L 17.914062 -11.546875 C 17.914062 -6.675781 14.957031 -3.757812 11.277344 -3.757812 C 7.683594 -3.757812 5.875 -5.792969 5.875 -10.109375 L 5.875 -20.976562 Z M 1.808594 -20.976562 "/></g></g><g transform="translate(78.82833, 154.692071)"><g><path d="M 1.992188 0 L 6.328125 0 L 5.773438 -6.121094 L 5.957031 -6.121094 C 7.003906 -1.601562 9.945312 0.65625 14.15625 0.65625 C 19.886719 0.65625 23.566406 -3.71875 23.566406 -10.539062 C 23.566406 -17.628906 19.96875 -21.632812 14.214844 -21.632812 C 9.492188 -21.632812 6.78125 -18.53125 5.8125 -13.640625 L 5.628906 -13.640625 C 5.792969 -15.347656 6.0625 -17.605469 6.0625 -19.660156 L 6.0625 -29.707031 L 1.992188 -29.707031 Z M 6.226562 -10.476562 C 6.226562 -15.058594 9.285156 -17.421875 13.085938 -17.421875 C 17.132812 -17.421875 19.867188 -14.9375 19.867188 -10.539062 C 19.867188 -6.203125 17.195312 -3.59375 13.023438 -3.59375 C 8.667969 -3.59375 6.226562 -6.144531 6.226562 -10.476562 Z M 6.226562 -10.476562 "/></g></g><g transform="translate(103.255652, 154.692071)"><g><path d="M 8.9375 -10.457031 L 10.003906 -10.210938 C 13.660156 -9.328125 15.65625 -8.402344 15.65625 -6.617188 C 15.65625 -4.683594 13.457031 -3.453125 10.210938 -3.453125 C 6.53125 -3.453125 3.410156 -5.054688 4.417969 -9 L 1.273438 -8.585938 C -0.289062 -2.363281 4.664062 0.636719 10.25 0.636719 C 16.1875 0.636719 19.351562 -1.847656 19.351562 -5.710938 C 19.351562 -8.976562 16.332031 -10.210938 10.972656 -11.257812 L 9.902344 -11.464844 C 7.273438 -12.058594 5.09375 -12.65625 5.09375 -14.8125 C 5.09375 -16.519531 6.699219 -17.648438 9.839844 -17.648438 C 13.476562 -17.648438 16.128906 -15.984375 15.265625 -12.53125 L 18.347656 -12.941406 C 19.765625 -18.984375 14.894531 -21.632812 9.738281 -21.632812 C 4.230469 -21.632812 1.480469 -19.292969 1.480469 -15.859375 C 1.480469 -11.875 5.589844 -11.074219 8.9375 -10.457031 Z M 8.9375 -10.457031 "/></g></g><g transform="translate(123.491911, 154.692071)"><g><path d="M 17.09375 -7.601562 C 16.847656 -5.074219 14.585938 -3.535156 11.257812 -3.535156 C 7.230469 -3.535156 4.601562 -6.101562 4.601562 -10.519531 C 4.601562 -14.441406 7.191406 -17.460938 11.300781 -17.460938 C 14.996094 -17.460938 17.546875 -15.078125 16.621094 -12.082031 L 19.785156 -12.347656 C 21.34375 -17.667969 17.074219 -21.632812 11.464844 -21.632812 C 5.339844 -21.632812 0.863281 -17.6875 0.863281 -10.476562 C 0.863281 -3.472656 5.035156 0.65625 10.910156 0.65625 C 16.128906 0.65625 19.660156 -1.929688 20.09375 -6.285156 Z M 17.09375 -7.601562 "/></g></g></g><g fill="#404c48" fill-opacity="1"><g transform="translate(144.61158, 154.692071)"><g><path d="M 15.386719 -9.882812 L 15.386719 -11.976562 L 1.152344 -11.976562 L 1.152344 -9.882812 Z M 15.386719 -9.882812 "/></g></g></g><g fill="#b88917" fill-opacity="1"><g transform="translate(161.149846, 154.692071)"><g><path d="M 2.425781 0 L 22.722656 0 L 22.722656 -4.828125 L 7.109375 -4.828125 L 7.109375 -29.417969 L 2.425781 -29.417969 Z M 2.425781 0 "/></g></g><g transform="translate(184.960835, 154.692071)"><g><path d="M 4.046875 -23.339844 C 5.917969 -23.339844 6.945312 -24.285156 6.945312 -26.050781 C 6.945312 -27.796875 5.917969 -28.722656 4.046875 -28.722656 C 2.15625 -28.722656 1.128906 -27.796875 1.128906 -26.050781 C 1.128906 -24.285156 2.15625 -23.339844 4.046875 -23.339844 Z M 1.992188 0 L 6.082031 0 L 6.082031 -20.976562 C 4.726562 -20.667969 3.347656 -20.667969 1.992188 -20.976562 Z M 1.992188 0 "/></g></g><g transform="translate(193.034795, 154.692071)"><g><path d="M 8.9375 -10.457031 L 10.003906 -10.210938 C 13.660156 -9.328125 15.65625 -8.402344 15.65625 -6.617188 C 15.65625 -4.683594 13.457031 -3.453125 10.210938 -3.453125 C 6.53125 -3.453125 3.410156 -5.054688 4.417969 -9 L 1.273438 -8.585938 C -0.289062 -2.363281 4.664062 0.636719 10.25 0.636719 C 16.1875 0.636719 19.351562 -1.847656 19.351562 -5.710938 C 19.351562 -8.976562 16.332031 -10.210938 10.972656 -11.257812 L 9.902344 -11.464844 C 7.273438 -12.058594 5.09375 -12.65625 5.09375 -14.8125 C 5.09375 -16.519531 6.699219 -17.648438 9.839844 -17.648438 C 13.476562 -17.648438 16.128906 -15.984375 15.265625 -12.53125 L 18.347656 -12.941406 C 19.765625 -18.984375 14.894531 -21.632812 9.738281 -21.632812 C 4.230469 -21.632812 1.480469 -19.292969 1.480469 -15.859375 C 1.480469 -11.875 5.589844 -11.074219 8.9375 -10.457031 Z M 8.9375 -10.457031 "/></g></g><g transform="translate(213.271054, 154.692071)"><g><path d="M 15.058594 -7.210938 C 15.265625 -4.5625 13.929688 -3.410156 11.628906 -3.410156 C 9.492188 -3.410156 8.175781 -4.5625 8.175781 -8.011719 L 8.175781 -16.886719 L 15.140625 -16.886719 L 15.140625 -20.976562 L 7.230469 -20.976562 L 7.230469 -21.324219 C 8.15625 -21.941406 8.136719 -23.195312 8.136719 -27.671875 L 4.765625 -27.671875 L 4.765625 -23.648438 C 4.765625 -21.941406 4.230469 -20.976562 2.445312 -20.976562 L 0.265625 -20.976562 L 0.265625 -16.886719 L 4.089844 -16.886719 L 4.089844 -7.4375 C 4.089844 -2.484375 6 0.65625 11.09375 0.65625 C 16.292969 0.65625 18.632812 -2.792969 18.078125 -7.066406 Z M 15.058594 -7.210938 "/></g></g></g><g fill="#404c48" fill-opacity="1"><g transform="translate(231.596681, 154.692071)"><g><path d="M 4.046875 -23.339844 C 5.917969 -23.339844 6.945312 -24.285156 6.945312 -26.050781 C 6.945312 -27.796875 5.917969 -28.722656 4.046875 -28.722656 C 2.15625 -28.722656 1.128906 -27.796875 1.128906 -26.050781 C 1.128906 -24.285156 2.15625 -23.339844 4.046875 -23.339844 Z M 1.992188 0 L 6.082031 0 L 6.082031 -20.976562 C 4.726562 -20.667969 3.347656 -20.667969 1.992188 -20.976562 Z M 1.992188 0 "/></g></g><g transform="translate(239.67064, 154.692071)"><g><path d="M 11.628906 0.65625 C 18.386719 0.65625 22.394531 -3.636719 22.394531 -10.519531 C 22.394531 -17.421875 18.429688 -21.652344 11.710938 -21.652344 C 4.890625 -21.652344 0.863281 -17.402344 0.863281 -10.5 C 0.863281 -3.757812 4.785156 0.65625 11.628906 0.65625 Z M 11.648438 -3.554688 C 7.335938 -3.554688 4.582031 -6.203125 4.582031 -10.519531 C 4.582031 -14.8125 7.3125 -17.460938 11.628906 -17.460938 C 15.941406 -17.460938 18.65625 -14.8125 18.65625 -10.539062 C 18.65625 -6.203125 15.921875 -3.554688 11.648438 -3.554688 Z M 11.648438 -3.554688 "/></g></g><g transform="translate(262.92693, 154.692071)"><g><path d="M 22.25 0 L 22.25 -11.875 C 22.25 -17.667969 20.484375 -21.632812 14.8125 -21.632812 C 10.027344 -21.632812 6.820312 -18.429688 5.691406 -12.367188 L 5.484375 -12.367188 L 6.347656 -20.976562 L 1.992188 -20.976562 L 1.992188 0 L 6.0625 0 L 6.0625 -9.285156 C 6.0625 -13.992188 9.121094 -17.238281 13.003906 -17.238281 C 16.621094 -17.238281 18.183594 -15.183594 18.183594 -10.847656 L 18.183594 0 Z M 22.25 0 "/></g></g></g><g clip-path="url(#c94c86a6f2)"><path fill="#b88917" d="M 218.882812 30.714844 C 217.75 30.753906 216.628906 30.621094 215.496094 30.53125 C 215.078125 30.5 214.660156 30.449219 214.242188 30.453125 C 210.257812 30.519531 206.257812 30.332031 202.289062 30.867188 C 199.035156 31.304688 195.757812 31.148438 192.492188 31.277344 C 189.644531 31.390625 186.789062 31.503906 183.9375 31.511719 C 181.910156 31.519531 179.933594 31.367188 177.910156 31.464844 C 175.644531 31.578125 169.863281 31.214844 167.59375 31.25 C 161.320312 31.34375 158.597656 31.359375 152.332031 31.257812 C 149.980469 31.222656 147.632812 31.207031 145.28125 31.183594 C 144.480469 31.175781 143.679688 31.09375 142.886719 31.15625 C 140.703125 31.328125 138.53125 31.183594 136.351562 31.070312 C 135.101562 31.007812 133.816406 31.039062 132.589844 31.261719 C 130.390625 31.65625 128.203125 31.929688 125.960938 31.78125 C 124.074219 31.65625 122.179688 31.675781 120.292969 31.582031 C 118.160156 31.46875 116.027344 31.269531 113.894531 31.171875 C 112.722656 31.117188 111.542969 31.195312 110.367188 31.21875 C 110.113281 31.222656 109.835938 31.300781 109.617188 31.21875 C 109.429688 31.148438 109.242188 30.921875 109.183594 30.722656 C 109.15625 30.628906 109.398438 30.355469 109.558594 30.316406 C 109.921875 30.230469 110.308594 30.207031 110.683594 30.214844 C 113.242188 30.269531 115.804688 30.3125 118.367188 30.410156 C 121.089844 30.511719 123.8125 30.65625 126.535156 30.8125 C 128.351562 30.921875 130.148438 30.859375 131.925781 30.472656 C 133.710938 30.082031 135.5 30.082031 137.316406 30.234375 C 138.773438 30.355469 140.246094 30.292969 141.714844 30.292969 C 143.179688 30.296875 144.652344 30.207031 146.113281 30.285156 C 149.550781 30.472656 152.988281 30.355469 156.429688 30.339844 C 157.472656 30.335938 158.515625 30.542969 159.5625 30.558594 C 161.863281 30.589844 164.195312 30.457031 166.496094 30.425781 C 168.417969 30.402344 170.289062 30.695312 172.214844 30.664062 C 177.546875 30.570312 182.832031 30.652344 188.164062 30.636719 C 188.539062 30.636719 188.921875 30.644531 189.296875 30.59375 C 192.597656 30.171875 195.921875 30.382812 199.234375 30.226562 C 200.78125 30.152344 202.320312 29.925781 203.863281 29.769531 C 203.988281 29.753906 204.113281 29.71875 204.234375 29.714844 C 206.414062 29.652344 208.59375 29.574219 210.773438 29.546875 C 212.199219 29.53125 213.628906 29.609375 215.054688 29.628906 C 216.71875 29.644531 218.382812 29.648438 220.046875 29.648438 C 221.550781 29.652344 220.886719 30.5 219.808594 30.640625 C 219.5 30.679688 219.191406 30.703125 218.882812 30.714844 Z M 221.097656 66.019531 C 218.242188 66.058594 215.390625 66.089844 212.535156 66.171875 C 210.859375 66.21875 209.1875 66.386719 207.507812 66.449219 C 205.707031 66.515625 203.898438 66.605469 202.097656 66.535156 C 198.660156 66.398438 195.230469 66.113281 191.796875 65.96875 C 190.164062 65.898438 188.523438 66.003906 186.886719 66.035156 C 184.347656 66.089844 181.804688 66.144531 179.265625 66.171875 C 176.773438 66.199219 174.308594 66.710938 171.8125 66.6875 C 166.351562 66.628906 160.917969 66.0625 155.453125 66.214844 C 152.449219 66.300781 149.488281 66.777344 146.488281 66.933594 C 143.429688 67.097656 140.363281 67.105469 137.304688 67.179688 C 137.175781 67.183594 137.050781 67.164062 136.925781 67.15625 C 135.421875 67.0625 133.914062 66.945312 132.410156 66.875 C 129.976562 66.761719 127.542969 66.683594 125.109375 66.582031 C 122.980469 66.492188 120.847656 66.390625 118.714844 66.289062 C 117.082031 66.210938 115.449219 66.113281 113.816406 66.035156 C 112.769531 65.988281 111.722656 65.925781 110.675781 65.929688 C 109.335938 65.933594 107.992188 66.003906 106.652344 66.039062 C 106.441406 66.042969 106.230469 65.988281 106.023438 66.007812 C 105.515625 66.050781 105.316406 66.476562 105.609375 66.898438 C 105.847656 67.246094 106.152344 67.339844 106.585938 67.261719 C 108.617188 66.898438 110.671875 66.847656 112.722656 66.941406 C 115.570312 67.070312 118.410156 67.28125 121.257812 67.398438 C 125.238281 67.5625 129.222656 67.679688 133.207031 67.8125 C 134.757812 67.863281 136.3125 67.914062 137.863281 67.941406 C 138.867188 67.957031 139.875 67.941406 140.878906 67.921875 C 143.222656 67.867188 145.570312 67.863281 147.910156 67.722656 C 150.175781 67.585938 152.425781 67.183594 154.6875 67.121094 C 157.828125 67.027344 160.988281 66.964844 164.113281 67.21875 C 166.28125 67.394531 168.453125 67.433594 170.625 67.496094 C 172.644531 67.550781 174.511719 67.6875 176.503906 67.34375 C 179.109375 66.894531 181.804688 67.265625 184.425781 66.925781 C 186.207031 66.699219 188.03125 66.714844 189.828125 66.78125 C 193.683594 66.921875 197.53125 67.210938 201.382812 67.347656 C 203.601562 67.421875 205.828125 67.347656 208.050781 67.285156 C 209.8125 67.234375 211.570312 67.058594 213.332031 67.003906 C 215.722656 66.929688 218.117188 66.921875 220.507812 66.882812 C 220.84375 66.875 221.191406 66.878906 221.503906 66.78125 C 221.925781 66.648438 222.035156 66.488281 221.96875 66.351562 C 221.882812 66.164062 221.484375 66.015625 221.097656 66.019531 Z M 164.160156 85.402344 C 166.433594 85.46875 168.773438 85.925781 171.035156 85.636719 C 173.363281 85.34375 175.695312 85.078125 178.042969 85.0625 C 180.527344 85.042969 183.003906 85.289062 185.488281 85.332031 C 189.40625 85.398438 193.320312 85.445312 197.234375 85.496094 C 197.695312 85.5 198.15625 85.421875 198.617188 85.402344 C 201.214844 85.292969 203.816406 85.175781 206.414062 85.089844 C 208.382812 85.023438 210.355469 85.046875 212.320312 84.945312 C 214.75 84.816406 217.171875 84.539062 219.617188 84.714844 C 220.496094 84.777344 221.425781 84.914062 222.300781 84.722656 C 223.082031 84.550781 223.828125 83.625 222.53125 83.65625 C 220.347656 83.710938 218.164062 83.75 215.984375 83.824219 C 214.808594 83.863281 213.636719 83.996094 212.460938 84.035156 C 210.15625 84.109375 207.847656 84.152344 205.539062 84.203125 C 204.617188 84.222656 203.695312 84.21875 202.777344 84.242188 C 200.722656 84.296875 198.691406 84.585938 196.628906 84.554688 C 192.46875 84.488281 188.308594 84.542969 184.148438 84.496094 C 181.246094 84.464844 178.457031 83.96875 175.542969 84.152344 C 172.609375 84.332031 169.671875 84.546875 166.730469 84.535156 C 164.929688 84.527344 163.125 84.519531 161.320312 84.488281 C 159.769531 84.464844 158.21875 84.335938 156.667969 84.300781 C 155.410156 84.273438 154.125 84.484375 152.898438 84.289062 C 149.804688 83.800781 146.691406 83.972656 143.59375 83.832031 C 140.496094 83.691406 137.390625 83.460938 134.28125 83.710938 C 134.113281 83.722656 133.945312 83.710938 133.777344 83.707031 C 131.425781 83.660156 129.078125 83.613281 126.726562 83.574219 C 126.011719 83.5625 125.292969 83.636719 124.582031 83.59375 C 121.320312 83.390625 118.054688 83.125 114.789062 82.953125 C 113.03125 82.859375 111.261719 82.875 109.5 82.914062 C 108.886719 82.929688 108.042969 83 107.460938 83.203125 C 107.234375 83.28125 107.03125 83.460938 106.996094 83.695312 C 106.902344 84.292969 107.550781 84.164062 107.878906 84.121094 C 109.164062 83.949219 110.453125 83.601562 111.734375 83.640625 C 114.917969 83.738281 118.101562 84.003906 121.28125 84.210938 C 122.449219 84.289062 123.621094 84.480469 124.785156 84.464844 C 129.105469 84.40625 133.421875 84.855469 137.742188 84.480469 C 137.992188 84.457031 138.242188 84.5 138.496094 84.507812 C 140.96875 84.589844 143.445312 84.664062 145.917969 84.746094 C 147.261719 84.789062 148.605469 84.820312 149.945312 84.90625 C 152.070312 85.042969 154.195312 85.125 156.320312 85.191406 C 158.933594 85.269531 161.542969 85.320312 164.160156 85.402344 Z M 108.277344 48.171875 C 107.488281 48.257812 106.847656 49.359375 107.945312 49.226562 C 109.828125 49.003906 111.808594 48.609375 113.703125 48.878906 C 114.394531 48.980469 115.117188 48.863281 115.824219 48.832031 C 117.125 48.773438 118.421875 48.65625 119.722656 48.660156 C 121.402344 48.667969 123.078125 48.824219 124.757812 48.816406 C 128.785156 48.800781 132.8125 48.726562 136.839844 48.671875 C 138.726562 48.644531 140.636719 48.417969 142.5 48.617188 C 144.398438 48.816406 146.261719 48.730469 148.148438 48.664062 C 152.257812 48.523438 156.371094 48.480469 160.480469 48.363281 C 162.742188 48.300781 165.003906 48.121094 167.269531 48.078125 C 170.007812 48.027344 172.628906 48.183594 175.355469 47.828125 C 179.160156 47.328125 183.113281 47.394531 186.941406 47.59375 C 191.4375 47.824219 195.910156 47.535156 200.398438 47.359375 C 203.328125 47.246094 206.269531 47.296875 209.207031 47.257812 C 210.042969 47.246094 210.875 47.167969 211.710938 47.140625 C 213.589844 47.074219 215.476562 46.960938 217.355469 46.964844 C 217.777344 46.964844 219.953125 47.210938 220.078125 46.632812 C 220.304688 45.578125 217.382812 45.96875 217.003906 45.96875 C 215.691406 45.976562 214.371094 45.992188 213.0625 46.128906 C 210.128906 46.4375 207.191406 46.277344 204.257812 46.382812 C 204.132812 46.386719 204.003906 46.371094 203.878906 46.375 C 201.746094 46.417969 199.582031 46.25 197.484375 46.558594 C 194.035156 47.0625 190.605469 46.859375 187.179688 46.65625 C 184.617188 46.5 182.066406 46.675781 179.511719 46.601562 C 178.128906 46.5625 176.742188 46.707031 175.363281 46.8125 C 174.078125 46.910156 172.804688 47.121094 171.523438 47.183594 C 170.054688 47.253906 168.585938 47.175781 167.117188 47.230469 C 163.21875 47.375 159.328125 47.710938 155.417969 47.636719 C 152.652344 47.585938 149.886719 47.855469 147.117188 47.882812 C 144.347656 47.910156 141.578125 47.804688 138.808594 47.78125 C 136.457031 47.757812 134.105469 47.6875 131.761719 47.792969 C 128.488281 47.9375 125.226562 47.953125 121.953125 47.761719 C 120.449219 47.675781 118.933594 47.78125 117.421875 47.8125 C 115.652344 47.84375 113.894531 47.875 112.121094 47.855469 C 111.882812 47.851562 111.644531 47.855469 111.40625 47.867188 C 110.363281 47.90625 109.316406 48.054688 108.277344 48.171875 Z M 93.894531 47.742188 C 94.886719 48.078125 96.167969 47.933594 97.1875 47.796875 C 98.417969 47.636719 99.777344 47.695312 100.980469 47.617188 C 102.289062 47.535156 102.304688 47.296875 102.34375 46.160156 C 102.398438 44.492188 102.367188 42.816406 102.375 41.148438 C 102.378906 40.691406 102.378906 40.238281 102.410156 39.78125 C 102.453125 39.125 102.289062 38.859375 101.691406 38.898438 C 99.664062 39.019531 97.660156 39.066406 95.148438 39.207031 C 94.40625 39.25 93.941406 39.800781 93.925781 40.515625 C 93.894531 42.238281 94.101562 43.945312 93.5625 45.613281 C 93.394531 46.132812 93.003906 46.789062 93.320312 47.324219 C 93.421875 47.496094 93.601562 47.640625 93.894531 47.742188 Z M 94.496094 46.539062 C 94.171875 45.875 94.546875 44.445312 94.609375 43.75 C 94.675781 43.054688 94.550781 40.964844 95.21875 40.570312 C 95.554688 40.375 96.3125 40.417969 96.703125 40.363281 C 97.734375 40.21875 98.761719 40.078125 99.792969 39.9375 C 100.082031 39.902344 100.378906 39.914062 100.671875 39.90625 C 101.019531 39.898438 101.238281 40.082031 101.257812 40.421875 C 101.363281 42.09375 101.464844 43.765625 101.539062 45.441406 C 101.558594 45.851562 101.328125 46.144531 100.886719 46.238281 C 99.792969 46.46875 98.695312 46.710938 97.578125 46.808594 C 97.039062 46.859375 94.886719 47.117188 94.519531 46.578125 C 94.511719 46.5625 94.503906 46.550781 94.496094 46.539062 Z M 100.722656 58.660156 C 101.117188 58.636719 101.195312 58.34375 101.203125 58.042969 C 101.214844 57.621094 100.910156 57.609375 100.59375 57.640625 C 99.386719 57.753906 98.179688 57.886719 96.96875 57.976562 C 96.257812 58.03125 95.546875 58.011719 94.835938 58.03125 C 94.503906 58.039062 94.167969 58.019531 93.84375 58.074219 C 93.332031 58.164062 93.027344 58.429688 93.082031 59.027344 C 93.125 59.480469 93.09375 59.949219 93.054688 60.40625 C 92.941406 61.660156 92.792969 62.914062 92.691406 64.167969 C 92.601562 65.246094 92.855469 65.578125 93.921875 65.871094 C 94.125 65.929688 94.332031 65.996094 94.535156 66.003906 C 96.667969 66.089844 98.800781 66.183594 100.933594 66.230469 C 101.863281 66.25 102.214844 65.824219 102.167969 64.890625 C 102.0625 62.925781 101.832031 60.957031 102.355469 59.007812 C 102.433594 58.707031 102.371094 58.390625 102.003906 58.3125 C 101.644531 58.238281 101.433594 58.460938 101.394531 58.789062 C 101.289062 59.617188 101.1875 60.449219 101.144531 61.285156 C 101.089844 62.285156 101.167969 63.300781 101.054688 64.292969 C 100.964844 65.085938 100.769531 65.203125 99.96875 65.210938 C 98.625 65.21875 97.28125 65.203125 95.941406 65.148438 C 95.402344 65.125 94.859375 65.007812 94.34375 64.855469 C 93.980469 64.75 93.664062 64.53125 93.714844 64.039062 C 93.859375 62.664062 93.980469 61.285156 94.125 59.910156 C 94.167969 59.488281 94.414062 59.210938 94.839844 59.152344 C 96.148438 58.976562 97.425781 58.863281 98.714844 58.773438 C 99.378906 58.730469 100.046875 58.691406 100.722656 58.660156 Z M 94.132812 79.253906 C 94.105469 78.765625 94.324219 78.503906 94.785156 78.390625 C 95.390625 78.242188 95.992188 78.074219 96.597656 77.914062 C 98.015625 77.539062 99.425781 77.125 100.921875 77.5 C 101.042969 77.53125 101.292969 77.40625 101.34375 77.289062 C 101.402344 77.15625 101.363281 76.875 101.261719 76.804688 C 101.066406 76.667969 100.800781 76.574219 100.566406 76.574219 C 100.089844 76.570312 99.605469 76.59375 99.140625 76.683594 C 97.519531 77 95.894531 77.296875 94.296875 77.699219 C 93.335938 77.941406 93.257812 78.210938 93.269531 79.238281 C 93.28125 80.488281 93.277344 81.738281 93.246094 82.984375 C 93.234375 83.429688 93.367188 83.699219 93.816406 83.761719 C 94.398438 83.847656 94.976562 83.960938 95.558594 84 C 97.0625 84.101562 98.566406 84.15625 100.066406 84.257812 C 100.464844 84.285156 100.855469 84.433594 101.253906 84.484375 C 101.601562 84.53125 101.804688 84.367188 101.820312 83.988281 C 101.851562 83.183594 101.914062 82.375 101.9375 81.570312 C 101.964844 80.726562 101.96875 79.882812 101.960938 79.039062 C 101.960938 78.828125 101.902344 78.601562 101.808594 78.414062 C 101.664062 78.132812 101.425781 77.957031 101.085938 78.078125 C 100.765625 78.191406 100.796875 78.453125 100.828125 78.71875 C 100.9375 79.707031 101.054688 80.691406 101.128906 81.679688 C 101.160156 82.078125 101.128906 82.492188 101.039062 82.882812 C 100.894531 83.519531 100.742188 83.59375 100.117188 83.554688 C 99.09375 83.492188 98.066406 83.445312 97.042969 83.375 C 96.347656 83.328125 95.644531 83.296875 94.960938 83.179688 C 94.234375 83.058594 94.191406 82.964844 94.167969 82.238281 C 94.152344 81.796875 94.15625 81.355469 94.15625 80.914062 C 94.160156 80.359375 94.164062 79.808594 94.132812 79.253906 Z M 102.367188 24.761719 C 102.132812 25.996094 101.933594 27.242188 101.707031 28.480469 C 101.5625 29.277344 101.417969 29.394531 100.628906 29.355469 C 100.042969 29.324219 99.460938 29.269531 98.875 29.230469 C 98.25 29.1875 97.613281 29.207031 97 29.097656 C 96.085938 28.933594 96 28.738281 96.09375 27.804688 C 96.222656 26.464844 96.335938 25.125 96.429688 23.785156 C 96.449219 23.503906 96.390625 23.203125 96.296875 22.929688 C 96.257812 22.8125 96.023438 22.652344 95.925781 22.683594 C 95.753906 22.734375 95.597656 22.898438 95.484375 23.050781 C 95.421875 23.132812 95.453125 23.292969 95.460938 23.417969 C 95.550781 25.140625 95.433594 26.851562 95.179688 28.558594 C 95.027344 29.585938 95.144531 29.796875 96.136719 29.902344 C 97.882812 30.089844 99.636719 30.269531 101.390625 30.292969 C 102.410156 30.304688 102.785156 29.925781 102.636719 29.007812 C 102.578125 28.648438 102.632812 28.25 102.707031 27.886719 C 103 26.449219 103.296875 25.011719 103.648438 23.585938 C 103.925781 22.441406 103.828125 22.191406 102.667969 22.179688 C 100.953125 22.164062 99.234375 22.25 97.519531 22.300781 C 97.175781 22.3125 96.929688 22.527344 97.023438 22.867188 C 97.070312 23.03125 97.375 23.230469 97.558594 23.226562 C 98.820312 23.195312 100.074219 23.105469 101.332031 23.050781 C 101.777344 23.03125 102.226562 23.058594 102.800781 23.070312 C 102.613281 23.792969 102.457031 24.269531 102.367188 24.761719 Z M 102.367188 24.761719 " fill-opacity="1" fill-rule="nonzero"/></g><g fill="#404c48" fill-opacity="1"><g transform="translate(116.101683, 177.977974)"><g><path d="M 2.207031 -5.625 C 2.214844 -5.1875 2.160156 -4.683594 2.0625 -4.152344 C 1.710938 -4.125 1.382812 -4.101562 1.164062 -4.09375 C 0.910156 -4.089844 0.679688 -4.074219 0.429688 -4.09375 L 0.503906 -3.15625 C 0.722656 -3.191406 1.078125 -3.238281 1.277344 -3.261719 C 1.410156 -3.28125 1.625 -3.308594 1.871094 -3.339844 C 1.621094 -2.390625 1.148438 -1.003906 0.46875 -0.0898438 L 1.382812 0.273438 C 2.019531 -0.75 2.523438 -2.382812 2.789062 -3.4375 C 2.988281 -3.449219 3.15625 -3.464844 3.269531 -3.464844 C 3.710938 -3.464844 3.949219 -3.386719 3.949219 -2.832031 C 3.949219 -2.144531 3.855469 -1.316406 3.660156 -0.933594 C 3.554688 -0.703125 3.371094 -0.632812 3.140625 -0.632812 C 2.960938 -0.632812 2.558594 -0.703125 2.292969 -0.777344 L 2.449219 0.140625 C 2.679688 0.195312 3.007812 0.238281 3.273438 0.238281 C 3.800781 0.238281 4.1875 0.0859375 4.417969 -0.398438 C 4.710938 -1.003906 4.8125 -2.109375 4.8125 -2.929688 C 4.8125 -3.925781 4.292969 -4.257812 3.554688 -4.257812 C 3.414062 -4.257812 3.203125 -4.242188 2.972656 -4.230469 C 3.023438 -4.480469 3.078125 -4.734375 3.113281 -4.945312 C 3.148438 -5.117188 3.199219 -5.335938 3.238281 -5.519531 Z M 4.796875 -4.515625 C 5.292969 -3.898438 5.792969 -2.644531 5.976562 -1.871094 L 6.851562 -2.285156 C 6.640625 -2.945312 6.058594 -4.269531 5.636719 -4.867188 Z M 4.796875 -4.515625 "/></g></g></g><g fill="#404c48" fill-opacity="1"><g transform="translate(124.706098, 177.977974)"><g><path d="M 4.089844 -5.273438 L 3.097656 -5.671875 C 2.972656 -5.378906 2.847656 -5.152344 2.757812 -4.964844 C 2.390625 -4.304688 0.925781 -1.386719 0.414062 0 L 1.394531 0.328125 C 1.5 -0.0351562 1.730469 -0.804688 1.921875 -1.214844 C 2.167969 -1.78125 2.550781 -2.257812 3.03125 -2.257812 C 3.28125 -2.257812 3.414062 -2.117188 3.4375 -1.871094 C 3.457031 -1.59375 3.449219 -1.023438 3.476562 -0.652344 C 3.507812 -0.148438 3.871094 0.316406 4.628906 0.316406 C 5.703125 0.316406 6.347656 -0.46875 6.703125 -1.667969 L 5.953125 -2.277344 C 5.757812 -1.417969 5.378906 -0.636719 4.78125 -0.636719 C 4.550781 -0.636719 4.363281 -0.742188 4.339844 -1.015625 C 4.296875 -1.304688 4.320312 -1.867188 4.304688 -2.175781 C 4.277344 -2.75 3.960938 -3.085938 3.441406 -3.085938 C 3.175781 -3.085938 2.910156 -3.023438 2.652344 -2.875 C 2.996094 -3.484375 3.519531 -4.453125 3.863281 -4.949219 C 3.941406 -5.0625 4.019531 -5.1875 4.089844 -5.273438 Z M 4.089844 -5.273438 "/></g></g></g><g fill="#404c48" fill-opacity="1"><g transform="translate(133.310512, 177.977974)"><g><path d="M 3.738281 -2.65625 C 4.171875 -2.714844 4.59375 -2.734375 5.078125 -2.734375 C 5.496094 -2.734375 5.925781 -2.691406 6.269531 -2.652344 L 6.289062 -3.484375 C 5.882812 -3.527344 5.460938 -3.546875 5.070312 -3.546875 C 4.621094 -3.546875 4.125 -3.511719 3.738281 -3.476562 Z M 4.285156 -4.886719 C 3.90625 -4.796875 3.511719 -4.71875 3.121094 -4.65625 L 3.175781 -4.921875 C 3.210938 -5.078125 3.273438 -5.386719 3.324219 -5.574219 L 2.265625 -5.660156 C 2.277344 -5.496094 2.273438 -5.21875 2.238281 -4.957031 C 2.222656 -4.84375 2.203125 -4.710938 2.175781 -4.558594 C 1.964844 -4.542969 1.761719 -4.535156 1.558594 -4.535156 C 1.269531 -4.535156 1.039062 -4.550781 0.679688 -4.59375 L 0.703125 -3.722656 C 0.945312 -3.710938 1.207031 -3.695312 1.542969 -3.695312 C 1.683594 -3.695312 1.835938 -3.703125 2 -3.710938 C 1.949219 -3.511719 1.902344 -3.316406 1.851562 -3.132812 C 1.59375 -2.160156 1.066406 -0.703125 0.652344 -0.0078125 L 1.625 0.316406 C 2.003906 -0.496094 2.476562 -1.921875 2.726562 -2.894531 C 2.804688 -3.175781 2.875 -3.484375 2.9375 -3.785156 C 3.402344 -3.84375 3.871094 -3.921875 4.285156 -4.011719 Z M 3.308594 -1.808594 C 3.253906 -1.535156 3.191406 -1.199219 3.191406 -0.882812 C 3.191406 -0.183594 3.785156 0.222656 4.957031 0.222656 C 5.511719 0.222656 5.980469 0.175781 6.375 0.125 L 6.410156 -0.765625 C 5.910156 -0.671875 5.425781 -0.625 4.964844 -0.625 C 4.222656 -0.625 4.046875 -0.847656 4.046875 -1.148438 C 4.046875 -1.304688 4.089844 -1.535156 4.144531 -1.730469 Z M 3.308594 -1.808594 "/></g></g></g><g fill="#404c48" fill-opacity="1"><g transform="translate(141.914928, 177.977974)"><g><path d="M 4.089844 -5.273438 L 3.097656 -5.671875 C 2.972656 -5.378906 2.847656 -5.152344 2.757812 -4.964844 C 2.390625 -4.304688 0.925781 -1.386719 0.414062 0 L 1.394531 0.328125 C 1.5 -0.0351562 1.730469 -0.804688 1.921875 -1.214844 C 2.167969 -1.78125 2.550781 -2.257812 3.03125 -2.257812 C 3.28125 -2.257812 3.414062 -2.117188 3.4375 -1.871094 C 3.457031 -1.59375 3.449219 -1.023438 3.476562 -0.652344 C 3.507812 -0.148438 3.871094 0.316406 4.628906 0.316406 C 5.703125 0.316406 6.347656 -0.46875 6.703125 -1.667969 L 5.953125 -2.277344 C 5.757812 -1.417969 5.378906 -0.636719 4.78125 -0.636719 C 4.550781 -0.636719 4.363281 -0.742188 4.339844 -1.015625 C 4.296875 -1.304688 4.320312 -1.867188 4.304688 -2.175781 C 4.277344 -2.75 3.960938 -3.085938 3.441406 -3.085938 C 3.175781 -3.085938 2.910156 -3.023438 2.652344 -2.875 C 2.996094 -3.484375 3.519531 -4.453125 3.863281 -4.949219 C 3.941406 -5.0625 4.019531 -5.1875 4.089844 -5.273438 Z M 4.089844 -5.273438 "/></g></g></g><g fill="#404c48" fill-opacity="1"><g transform="translate(150.519342, 177.977974)"><g><path d="M 5.246094 -4.195312 L 5.246094 -4.929688 C 5.246094 -5.210938 5.273438 -5.441406 5.289062 -5.582031 L 4.292969 -5.582031 C 4.3125 -5.441406 4.332031 -5.210938 4.332031 -4.929688 L 4.332031 -4.195312 L 2.671875 -4.195312 L 2.671875 -4.878906 C 2.671875 -5.160156 2.691406 -5.386719 2.714844 -5.519531 L 1.71875 -5.519531 C 1.730469 -5.386719 1.761719 -5.152344 1.761719 -4.886719 L 1.761719 -4.195312 L 1.164062 -4.195312 C 0.8125 -4.195312 0.53125 -4.234375 0.40625 -4.257812 L 0.40625 -3.304688 C 0.5625 -3.316406 0.8125 -3.332031 1.164062 -3.332031 L 1.761719 -3.332031 L 1.761719 -2.378906 C 1.761719 -2.0625 1.738281 -1.78125 1.71875 -1.640625 L 2.699219 -1.640625 C 2.691406 -1.78125 2.671875 -2.070312 2.671875 -2.378906 L 2.671875 -3.332031 L 4.332031 -3.332031 L 4.332031 -3.066406 C 4.332031 -1.347656 3.738281 -0.734375 2.382812 -0.265625 L 3.132812 0.441406 C 4.824219 -0.300781 5.246094 -1.359375 5.246094 -3.097656 L 5.246094 -3.332031 L 5.765625 -3.332031 C 6.136719 -3.332031 6.382812 -3.324219 6.535156 -3.308594 L 6.535156 -4.242188 C 6.347656 -4.207031 6.136719 -4.195312 5.765625 -4.195312 Z M 5.246094 -4.195312 "/></g></g></g><g fill="#404c48" fill-opacity="1"><g transform="translate(159.123758, 177.977974)"><g><path d="M 5.863281 -4.984375 C 5.734375 -5.238281 5.503906 -5.644531 5.324219 -5.910156 L 4.746094 -5.671875 C 4.878906 -5.46875 5.019531 -5.222656 5.140625 -4.992188 C 5.015625 -4.980469 4.894531 -4.980469 4.8125 -4.980469 L 1.5625 -4.980469 C 1.332031 -4.980469 0.933594 -5.007812 0.730469 -5.035156 L 0.730469 -4.046875 C 0.910156 -4.058594 1.242188 -4.074219 1.5625 -4.074219 L 4.832031 -4.074219 C 4.734375 -3.472656 4.46875 -2.679688 4.003906 -2.097656 C 3.4375 -1.382812 2.652344 -0.777344 1.253906 -0.449219 L 2.019531 0.386719 C 3.273438 -0.015625 4.207031 -0.707031 4.839844 -1.550781 C 5.425781 -2.328125 5.730469 -3.414062 5.890625 -4.101562 C 5.933594 -4.25 5.980469 -4.453125 6.042969 -4.585938 L 5.601562 -4.875 Z M 5.722656 -5.847656 C 5.910156 -5.597656 6.128906 -5.195312 6.285156 -4.910156 L 6.867188 -5.160156 C 6.730469 -5.40625 6.480469 -5.835938 6.304688 -6.085938 Z M 5.722656 -5.847656 "/></g></g></g><g fill="#404c48" fill-opacity="1"><g transform="translate(167.728172, 177.977974)"><g><path d="M 5.273438 -5.183594 C 5.132812 -5.132812 4.851562 -5.089844 4.542969 -5.089844 L 2.074219 -5.089844 C 1.867188 -5.089844 1.4375 -5.113281 1.25 -5.140625 L 1.25 -4.144531 C 1.394531 -4.152344 1.78125 -4.195312 2.074219 -4.195312 L 4.453125 -4.195312 C 4.296875 -3.695312 3.871094 -3 3.40625 -2.476562 C 2.75 -1.738281 1.660156 -0.890625 0.53125 -0.460938 L 1.253906 0.292969 C 2.214844 -0.160156 3.148438 -0.890625 3.890625 -1.675781 C 4.550781 -1.039062 5.203125 -0.324219 5.660156 0.308594 L 6.457031 -0.386719 C 6.042969 -0.890625 5.195312 -1.789062 4.503906 -2.390625 C 4.972656 -3.023438 5.363281 -3.773438 5.601562 -4.320312 C 5.667969 -4.460938 5.792969 -4.675781 5.847656 -4.753906 Z M 5.273438 -5.183594 "/></g></g></g><g fill="#404c48" fill-opacity="1"><g transform="translate(176.332587, 177.977974)"><g><path d="M 5.589844 -4.804688 C 5.425781 -4.753906 5.195312 -4.71875 4.980469 -4.71875 L 3.570312 -4.71875 L 3.589844 -4.753906 C 3.675781 -4.910156 3.851562 -5.222656 4.019531 -5.46875 L 2.996094 -5.804688 C 2.929688 -5.566406 2.785156 -5.246094 2.679688 -5.070312 C 2.328125 -4.46875 1.71875 -3.5625 0.492188 -2.8125 L 1.277344 -2.230469 C 1.964844 -2.699219 2.574219 -3.316406 3.042969 -3.925781 L 5.015625 -3.925781 C 4.902344 -3.402344 4.496094 -2.558594 4.019531 -2.011719 C 3.40625 -1.316406 2.628906 -0.707031 1.191406 -0.28125 L 2.019531 0.460938 C 3.339844 -0.0625 4.1875 -0.703125 4.851562 -1.515625 C 5.484375 -2.300781 5.882812 -3.234375 6.074219 -3.855469 C 6.128906 -4.03125 6.226562 -4.230469 6.304688 -4.363281 Z M 5.589844 -4.804688 "/></g></g></g><g fill="#404c48" fill-opacity="1"><g transform="translate(184.937001, 177.977974)"><g><path d="M 5.167969 -0.582031 L 5.167969 -0.1875 L 2.390625 -0.1875 L 2.390625 -0.582031 Z M 4.636719 -2.476562 L 4.636719 -2.109375 L 2.390625 -2.109375 L 2.390625 -2.476562 Z M 2.390625 -1.515625 L 5.460938 -1.515625 L 5.460938 -3.078125 L 1.59375 -3.078125 L 1.59375 0.617188 L 2.390625 0.617188 L 2.390625 0.429688 L 5.167969 0.429688 L 5.167969 0.617188 L 5.996094 0.617188 L 5.996094 -1.191406 L 2.390625 -1.191406 Z M 6.730469 -5.449219 L 4.699219 -5.449219 C 4.761719 -5.566406 4.816406 -5.6875 4.867188 -5.804688 L 4.074219 -5.996094 C 3.925781 -5.632812 3.6875 -5.265625 3.40625 -4.980469 L 3.40625 -5.449219 L 1.851562 -5.449219 C 1.90625 -5.5625 1.964844 -5.671875 2.011719 -5.785156 L 1.234375 -5.996094 C 1.023438 -5.460938 0.625 -4.921875 0.203125 -4.570312 C 0.394531 -4.480469 0.722656 -4.257812 0.882812 -4.125 C 1.066406 -4.304688 1.261719 -4.535156 1.445312 -4.796875 L 1.5625 -4.796875 C 1.695312 -4.566406 1.824219 -4.296875 1.878906 -4.125 L 2.628906 -4.332031 C 2.582031 -4.460938 2.496094 -4.628906 2.398438 -4.796875 L 3.21875 -4.796875 C 3.164062 -4.746094 3.097656 -4.699219 3.042969 -4.65625 C 3.132812 -4.613281 3.269531 -4.550781 3.394531 -4.480469 L 3.085938 -4.480469 L 3.085938 -3.988281 L 0.503906 -3.988281 L 0.503906 -2.601562 L 1.289062 -2.601562 L 1.289062 -3.367188 L 5.757812 -3.367188 L 5.757812 -2.601562 L 6.570312 -2.601562 L 6.570312 -3.988281 L 3.886719 -3.988281 L 3.886719 -4.367188 C 4.019531 -4.496094 4.144531 -4.636719 4.269531 -4.796875 L 4.675781 -4.796875 C 4.84375 -4.566406 5.019531 -4.292969 5.097656 -4.109375 L 5.871094 -4.328125 C 5.804688 -4.460938 5.695312 -4.628906 5.574219 -4.796875 L 6.730469 -4.796875 Z M 6.730469 -5.449219 "/></g></g></g><g fill="#404c48" fill-opacity="1"><g transform="translate(193.541419, 177.977974)"><g><path d="M 2.515625 -1.578125 C 2.292969 -1.5 2.0625 -1.429688 1.832031 -1.359375 L 1.832031 -2.761719 L 2.460938 -2.761719 L 2.460938 -3.527344 L 1.832031 -3.527344 L 1.832031 -4.761719 L 2.582031 -4.761719 L 2.582031 -5.539062 L 0.265625 -5.539062 L 0.265625 -4.761719 L 1.039062 -4.761719 L 1.039062 -3.527344 L 0.328125 -3.527344 L 0.328125 -2.761719 L 1.039062 -2.761719 L 1.039062 -1.113281 C 0.714844 -1.023438 0.429688 -0.945312 0.183594 -0.882812 L 0.371094 -0.0351562 C 1.042969 -0.253906 1.886719 -0.519531 2.65625 -0.792969 Z M 3.597656 -3.695312 L 4.320312 -3.695312 L 4.320312 -3.09375 L 3.597656 -3.09375 Z M 3.597656 -4.9375 L 4.320312 -4.9375 L 4.320312 -4.355469 L 3.597656 -4.355469 Z M 5.714844 -4.355469 L 5.019531 -4.355469 L 5.019531 -4.9375 L 5.714844 -4.9375 Z M 5.714844 -3.09375 L 5.019531 -3.09375 L 5.019531 -3.695312 L 5.714844 -3.695312 Z M 5.097656 -0.363281 L 5.097656 -1.03125 L 6.585938 -1.03125 L 6.585938 -1.78125 L 5.097656 -1.78125 L 5.097656 -2.382812 L 6.507812 -2.382812 L 6.507812 -5.644531 L 2.847656 -5.644531 L 2.847656 -2.382812 L 4.25 -2.382812 L 4.25 -1.78125 L 2.796875 -1.78125 L 2.796875 -1.03125 L 4.25 -1.03125 L 4.25 -0.363281 L 2.3125 -0.363281 L 2.3125 0.394531 L 6.824219 0.394531 L 6.824219 -0.363281 Z M 5.097656 -0.363281 "/></g></g></g></svg>